# xmcd
#
# Track frame offsets: 
#        150
#        21525
#        52983
#        67064
#        78089
#        100925
#        129339
#        145004
#        161595
#        201140
#        228778
#
# Disc length: 3298 seconds
#
# Revision: 1
# Processed by: cddbd v1.5.1PL0 Copyright (c) Steve Scherf et al.
# Submitted via: ExactAudioCopy v0.90b4
#
DISCID=8b0ce00b
DTITLE=Various Artist - 30 Years North Sea Jazz Festival CD 03 1986-1
DTITLE=990
DYEAR=2005
DGENRE=Jazz
TTITLE0=Lee Ritenour - Runaway
TTITLE1=Lee Konitz - Foolin' Myself
TTITLE2=Count Basie and His Orchestra - Dinner with Friends
TTITLE3=Shirley Horne - I Just Found Out About Love
TTITLE4=Yellow Jackets - Regular Folks
TTITLE5=Chuck Mangione - Floating
TTITLE6=Helen Merrill - When Lights are Low
TTITLE7=Les McCann - Watermelon Man
TTITLE8=Michel Petrucciani - I Just Say Hello
TTITLE9=Charlie Haden Quartet West - Here's Lookin at You
TTITLE10=Chick Corea - Elektric City
EXTD=YEAR: 2005
EXTT0=
EXTT1=
EXTT2=
EXTT3=
EXTT4=
EXTT5=
EXTT6=
EXTT7=
EXTT8=
EXTT9=
EXTT10=
PLAYORDER=
